<mxfile host="app.diagrams.net" modified="2023-08-22T12:08:37.600Z" agent="Mozilla/5.0 (Macintosh; Intel Mac OS X 10_15_7) AppleWebKit/537.36 (KHTML, like Gecko) Chrome/114.0.0.0 Safari/537.36 OPR/100.0.0.0 (Edition std-1)" version="21.5.0" etag="chED1Sk3BzY1NyHZTx6p" type="github">
  <diagram name="PÃ¡gina-1" id="_wrz5rE7trCDBcU3aHLf">
    <mxGraphModel>
      <root>
        <mxCell id="0" />
        <mxCell id="1" parent="0" />
      </root>
    </mxGraphModel>
  </diagram>
</mxfile>
